{
  "accessors": [
    {
      "name": "Node-Mesh_0_positions",
      "componentType": 5126,
      "count": 5278,
      "min": [
        0.8487910032272339,
        -2.229759931564331,
        -4.765960216522217
      ],
      "max": [
        2.7976200580596924,
        -0.999737024307251,
        -3.5439701080322266
      ],
      "type": "VEC3",
      "bufferView": 0,
      "byteOffset": 0
    },
    {
      "name": "Node-Mesh_0_indices",
      "componentType": 5123,
      "count": 30480,
      "min": [
        0
      ],
      "max": [
        5277
      ],
      "type": "SCALAR",
      "bufferView": 1,
      "byteOffset": 0
    },
    {
      "name": "_1_1_0_positions",
      "componentType": 5126,
      "count": 95,
      "min": [
        4.676640033721924,
        -2.0911500453948975,
        -3.469870090484619
      ],
      "max": [
        5.135580062866211,
        -2.0903000831604004,
        -3.227750062942505
      ],
      "type": "VEC3",
      "bufferView": 0,
      "byteOffset": 63336
    },
    {
      "name": "_1_1_0_indices",
      "componentType": 5123,
      "count": 426,
      "min": [
        0
      ],
      "max": [
        94
      ],
      "type": "SCALAR",
      "bufferView": 1,
      "byteOffset": 60960
    },
    {
      "name": "_2_1_0_positions",
      "componentType": 5126,
      "count": 474,
      "min": [
        4.680150032043457,
        1.3250399827957153,
        -3.4698500633239746
      ],
      "max": [
        5.855050086975098,
        1.3910900354385376,
        -3.0627100467681885
      ],
      "type": "VEC3",
      "bufferView": 0,
      "byteOffset": 64476
    },
    {
      "name": "_2_1_0_indices",
      "componentType": 5123,
      "count": 2472,
      "min": [
        0
      ],
      "max": [
        473
      ],
      "type": "SCALAR",
      "bufferView": 1,
      "byteOffset": 61812
    },
    {
      "name": "_3_1_0_positions",
      "componentType": 5126,
      "count": 7259,
      "min": [
        2.7950799465179443,
        -1,
        -4.270569801330566
      ],
      "max": [
        4.710700035095215,
        0.9204959869384766,
        -3.504110097885132
      ],
      "type": "VEC3",
      "bufferView": 0,
      "byteOffset": 70164
    },
    {
      "name": "_3_1_0_indices",
      "componentType": 5123,
      "count": 41385,
      "min": [
        0
      ],
      "max": [
        7258
      ],
      "type": "SCALAR",
      "bufferView": 1,
      "byteOffset": 66756
    },
    {
      "name": "_4_1_0_positions",
      "componentType": 5126,
      "count": 2737,
      "min": [
        2.7673699855804443,
        0.9202430248260498,
        -4.267970085144043
      ],
      "max": [
        4.701920032501221,
        1.4604500532150269,
        -3.4697999954223633
      ],
      "type": "VEC3",
      "bufferView": 0,
      "byteOffset": 157272
    },
    {
      "name": "_4_1_0_indices",
      "componentType": 5123,
      "count": 15738,
      "min": [
        0
      ],
      "max": [
        2736
      ],
      "type": "SCALAR",
      "bufferView": 1,
      "byteOffset": 149528
    },
    {
      "name": "_5_1_0_positions",
      "componentType": 5126,
      "count": 2448,
      "min": [
        -0.6878870129585266,
        0.9200109839439392,
        -5.069580078125
      ],
      "max": [
        0.9041630029678345,
        1.3702399730682373,
        -3.618069887161255
      ],
      "type": "VEC3",
      "bufferView": 0,
      "byteOffset": 190116
    },
    {
      "name": "_5_1_0_indices",
      "componentType": 5123,
      "count": 13506,
      "min": [
        0
      ],
      "max": [
        2447
      ],
      "type": "SCALAR",
      "bufferView": 1,
      "byteOffset": 181004
    },
    {
      "name": "_6_1_0_positions",
      "componentType": 5126,
      "count": 1238,
      "min": [
        2.7407100200653076,
        -2.0889699459075928,
        -3.5439600944519043
      ],
      "max": [
        4.685919761657715,
        -2.0716700553894043,
        -2.8533101081848145
      ],
      "type": "VEC3",
      "bufferView": 0,
      "byteOffset": 219492
    },
    {
      "name": "_6_1_0_indices",
      "componentType": 5123,
      "count": 6846,
      "min": [
        0
      ],
      "max": [
        1237
      ],
      "type": "SCALAR",
      "bufferView": 1,
      "byteOffset": 208016
    },
    {
      "name": "_7_1_0_positions",
      "componentType": 5126,
      "count": 1575,
      "min": [
        0.8418319821357727,
        1.3318300247192383,
        -3.6180500984191895
      ],
      "max": [
        2.767359972000122,
        1.3354400396347046,
        -2.8455100059509277
      ],
      "type": "VEC3",
      "bufferView": 0,
      "byteOffset": 234348
    },
    {
      "name": "_7_1_0_indices",
      "componentType": 5123,
      "count": 8856,
      "min": [
        0
      ],
      "max": [
        1574
      ],
      "type": "SCALAR",
      "bufferView": 1,
      "byteOffset": 221708
    },
    {
      "name": "_8_1_0_positions",
      "componentType": 5126,
      "count": 5312,
      "min": [
        4.699090003967285,
        -1.0005899667739868,
        -4.3226399421691895
      ],
      "max": [
        5.94966983795166,
        0.9202430248260498,
        -3.5416901111602783
      ],
      "type": "VEC3",
      "bufferView": 0,
      "byteOffset": 253248
    },
    {
      "name": "_8_1_0_indices",
      "componentType": 5123,
      "count": 29208,
      "min": [
        0
      ],
      "max": [
        5311
      ],
      "type": "SCALAR",
      "bufferView": 1,
      "byteOffset": 239420
    },
    {
      "name": "_9_1_0_positions",
      "componentType": 5126,
      "count": 4309,
      "min": [
        2.767359972000122,
        -2.1997599601745605,
        -4.274789810180664
      ],
      "max": [
        4.708749771118164,
        -0.9997029900550842,
        -3.469870090484619
      ],
      "type": "VEC3",
      "bufferView": 0,
      "byteOffset": 316992
    },
    {
      "name": "_9_1_0_indices",
      "componentType": 5123,
      "count": 25014,
      "min": [
        0
      ],
      "max": [
        4308
      ],
      "type": "SCALAR",
      "bufferView": 1,
      "byteOffset": 297836
    },
    {
      "name": "_10_1_0_positions",
      "componentType": 5126,
      "count": 4943,
      "min": [
        -1.0153199434280396,
        -2.1997599601745605,
        -5.469689846038818
      ],
      "max": [
        0.8931530117988586,
        -0.9997569918632507,
        -3.6181399822235107
      ],
      "type": "VEC3",
      "bufferView": 0,
      "byteOffset": 368700
    },
    {
      "name": "_10_1_0_indices",
      "componentType": 5123,
      "count": 27972,
      "min": [
        0
      ],
      "max": [
        4942
      ],
      "type": "SCALAR",
      "bufferView": 1,
      "byteOffset": 347864
    },
    {
      "name": "_11_1_0_positions",
      "componentType": 5126,
      "count": 7037,
      "min": [
        0.8867210149765015,
        -0.9998059868812561,
        -4.782589912414551
      ],
      "max": [
        2.8015899658203125,
        0.9204980134963989,
        -3.9961400032043457
      ],
      "type": "VEC3",
      "bufferView": 0,
      "byteOffset": 428016
    },
    {
      "name": "_11_1_0_indices",
      "componentType": 5123,
      "count": 40743,
      "min": [
        0
      ],
      "max": [
        7036
      ],
      "type": "SCALAR",
      "bufferView": 1,
      "byteOffset": 403808
    },
    {
      "name": "_12_1_0_positions",
      "componentType": 5126,
      "count": 1186,
      "min": [
        2.7418699264526367,
        1.3332600593566895,
        -3.5439701080322266
      ],
      "max": [
        4.685939788818359,
        1.386389970779419,
        -2.882999897003174
      ],
      "type": "VEC3",
      "bufferView": 0,
      "byteOffset": 512460
    },
    {
      "name": "_12_1_0_indices",
      "componentType": 5123,
      "count": 6450,
      "min": [
        0
      ],
      "max": [
        1185
      ],
      "type": "SCALAR",
      "bufferView": 1,
      "byteOffset": 485296
    },
    {
      "name": "_13_1_0_positions",
      "componentType": 5126,
      "count": 2303,
      "min": [
        4.685910224914551,
        -2.0907299518585205,
        -4.11476993560791
      ],
      "max": [
        5.6546502113342285,
        -0.9995250105857849,
        -3.4489800930023193
      ],
      "type": "VEC3",
      "bufferView": 0,
      "byteOffset": 526692
    },
    {
      "name": "_13_1_0_indices",
      "componentType": 5123,
      "count": 13116,
      "min": [
        0
      ],
      "max": [
        2302
      ],
      "type": "SCALAR",
      "bufferView": 1,
      "byteOffset": 498196
    },
    {
      "name": "_14_1_0_positions",
      "componentType": 5126,
      "count": 18,
      "min": [
        0.7576829791069031,
        1.3334300518035889,
        -3.6215100288391113
      ],
      "max": [
        0.8487759828567505,
        1.3339500427246094,
        -3.4681599140167236
      ],
      "type": "VEC3",
      "bufferView": 0,
      "byteOffset": 554328
    },
    {
      "name": "_14_1_0_indices",
      "componentType": 5123,
      "count": 54,
      "min": [
        0
      ],
      "max": [
        17
      ],
      "type": "SCALAR",
      "bufferView": 1,
      "byteOffset": 524428
    },
    {
      "name": "_15_1_0_positions",
      "componentType": 5126,
      "count": 891,
      "min": [
        0.9375770092010498,
        -2.094939947128296,
        -3.6135001182556152
      ],
      "max": [
        2.767359972000122,
        -2.0722599029541016,
        -2.8060998916625977
      ],
      "type": "VEC3",
      "bufferView": 0,
      "byteOffset": 554544
    },
    {
      "name": "_15_1_0_indices",
      "componentType": 5123,
      "count": 4773,
      "min": [
        0
      ],
      "max": [
        890
      ],
      "type": "SCALAR",
      "bufferView": 1,
      "byteOffset": 524536
    },
    {
      "name": "_16_1_0_positions",
      "componentType": 5126,
      "count": 5740,
      "min": [
        -0.9841880202293396,
        -0.9998859763145447,
        -5.155139923095703
      ],
      "max": [
        0.9063069820404053,
        0.9202430248260498,
        -4.7128801345825195
      ],
      "type": "VEC3",
      "bufferView": 0,
      "byteOffset": 565236
    },
    {
      "name": "_16_1_0_indices",
      "componentType": 5123,
      "count": 32598,
      "min": [
        0
      ],
      "max": [
        5739
      ],
      "type": "SCALAR",
      "bufferView": 1,
      "byteOffset": 534084
    },
    {
      "name": "_17_1_0_positions",
      "componentType": 5126,
      "count": 3751,
      "min": [
        0.8487840294837952,
        0.9200329780578613,
        -4.69297981262207
      ],
      "max": [
        2.8010199069976807,
        1.4302300214767456,
        -3.5439999103546143
      ],
      "type": "VEC3",
      "bufferView": 0,
      "byteOffset": 634116
    },
    {
      "name": "_17_1_0_indices",
      "componentType": 5123,
      "count": 20880,
      "min": [
        0
      ],
      "max": [
        3750
      ],
      "type": "SCALAR",
      "bufferView": 1,
      "byteOffset": 599280
    },
    {
      "name": "_18_1_0_positions",
      "componentType": 5126,
      "count": 1498,
      "min": [
        4.685919761657715,
        0.9202430248260498,
        -3.8538200855255127
      ],
      "max": [
        6.012979984283447,
        1.4441499710083008,
        -3.422300100326538
      ],
      "type": "VEC3",
      "bufferView": 0,
      "byteOffset": 679128
    },
    {
      "name": "_18_1_0_indices",
      "componentType": 5123,
      "count": 8400,
      "min": [
        0
      ],
      "max": [
        1497
      ],
      "type": "SCALAR",
      "bufferView": 1,
      "byteOffset": 641040
    }
  ],
  "asset": {
    "generator": "obj2gltf",
    "version": "2.0"
  },
  "buffers": [
    {
      "name": "43bf788d-ca2b-4fbe-855e-081e420cc966",
      "byteLength": 1354944,
      "uri": "data:application/octet-stream;base64,"
    }
  ],
  "bufferViews": [
    {
      "name": "bufferView_0",
      "buffer": 0,
      "byteLength": 697104,
      "byteOffset": 0,
      "byteStride": 12,
      "target": 34962
    },
    {
      "name": "bufferView_1",
      "buffer": 0,
      "byteLength": 657840,
      "byteOffset": 697104,
      "target": 34963
    }
  ],
  "materials": [
    {
      "name": "material_1",
      "pbrMetallicRoughness": {
        "baseColorFactor": [
          0.5,
          0.5,
          0.5,
          1
        ],
        "metallicFactor": 0,
        "roughnessFactor": 1
      },
      "emissiveFactor": [
        0,
        0,
        0
      ],
      "alphaMode": "OPAQUE",
      "doubleSided": false
    },
    {
      "name": "material_2",
      "pbrMetallicRoughness": {
        "baseColorFactor": [
          0.5,
          0.5,
          0.5,
          1
        ],
        "metallicFactor": 0,
        "roughnessFactor": 1
      },
      "emissiveFactor": [
        0,
        0,
        0
      ],
      "alphaMode": "OPAQUE",
      "doubleSided": false
    },
    {
      "name": "material_3",
      "pbrMetallicRoughness": {
        "baseColorFactor": [
          0.5,
          0.5,
          0.5,
          1
        ],
        "metallicFactor": 0,
        "roughnessFactor": 1
      },
      "emissiveFactor": [
        0,
        0,
        0
      ],
      "alphaMode": "OPAQUE",
      "doubleSided": false
    },
    {
      "name": "material_4",
      "pbrMetallicRoughness": {
        "baseColorFactor": [
          0.5,
          0.5,
          0.5,
          1
        ],
        "metallicFactor": 0,
        "roughnessFactor": 1
      },
      "emissiveFactor": [
        0,
        0,
        0
      ],
      "alphaMode": "OPAQUE",
      "doubleSided": false
    },
    {
      "name": "material_5",
      "pbrMetallicRoughness": {
        "baseColorFactor": [
          0.5,
          0.5,
          0.5,
          1
        ],
        "metallicFactor": 0,
        "roughnessFactor": 1
      },
      "emissiveFactor": [
        0,
        0,
        0
      ],
      "alphaMode": "OPAQUE",
      "doubleSided": false
    },
    {
      "name": "material_6",
      "pbrMetallicRoughness": {
        "baseColorFactor": [
          0.5,
          0.5,
          0.5,
          1
        ],
        "metallicFactor": 0,
        "roughnessFactor": 1
      },
      "emissiveFactor": [
        0,
        0,
        0
      ],
      "alphaMode": "OPAQUE",
      "doubleSided": false
    },
    {
      "name": "material_7",
      "pbrMetallicRoughness": {
        "baseColorFactor": [
          0.5,
          0.5,
          0.5,
          1
        ],
        "metallicFactor": 0,
        "roughnessFactor": 1
      },
      "emissiveFactor": [
        0,
        0,
        0
      ],
      "alphaMode": "OPAQUE",
      "doubleSided": false
    },
    {
      "name": "material_8",
      "pbrMetallicRoughness": {
        "baseColorFactor": [
          0.5,
          0.5,
          0.5,
          1
        ],
        "metallicFactor": 0,
        "roughnessFactor": 1
      },
      "emissiveFactor": [
        0,
        0,
        0
      ],
      "alphaMode": "OPAQUE",
      "doubleSided": false
    },
    {
      "name": "material_9",
      "pbrMetallicRoughness": {
        "baseColorFactor": [
          0.5,
          0.5,
          0.5,
          1
        ],
        "metallicFactor": 0,
        "roughnessFactor": 1
      },
      "emissiveFactor": [
        0,
        0,
        0
      ],
      "alphaMode": "OPAQUE",
      "doubleSided": false
    },
    {
      "name": "material_10",
      "pbrMetallicRoughness": {
        "baseColorFactor": [
          0.5,
          0.5,
          0.5,
          1
        ],
        "metallicFactor": 0,
        "roughnessFactor": 1
      },
      "emissiveFactor": [
        0,
        0,
        0
      ],
      "alphaMode": "OPAQUE",
      "doubleSided": false
    },
    {
      "name": "material_11",
      "pbrMetallicRoughness": {
        "baseColorFactor": [
          0.5,
          0.5,
          0.5,
          1
        ],
        "metallicFactor": 0,
        "roughnessFactor": 1
      },
      "emissiveFactor": [
        0,
        0,
        0
      ],
      "alphaMode": "OPAQUE",
      "doubleSided": false
    },
    {
      "name": "material_12",
      "pbrMetallicRoughness": {
        "baseColorFactor": [
          0.5,
          0.5,
          0.5,
          1
        ],
        "metallicFactor": 0,
        "roughnessFactor": 1
      },
      "emissiveFactor": [
        0,
        0,
        0
      ],
      "alphaMode": "OPAQUE",
      "doubleSided": false
    },
    {
      "name": "material_13",
      "pbrMetallicRoughness": {
        "baseColorFactor": [
          0.5,
          0.5,
          0.5,
          1
        ],
        "metallicFactor": 0,
        "roughnessFactor": 1
      },
      "emissiveFactor": [
        0,
        0,
        0
      ],
      "alphaMode": "OPAQUE",
      "doubleSided": false
    },
    {
      "name": "material_14",
      "pbrMetallicRoughness": {
        "baseColorFactor": [
          0.5,
          0.5,
          0.5,
          1
        ],
        "metallicFactor": 0,
        "roughnessFactor": 1
      },
      "emissiveFactor": [
        0,
        0,
        0
      ],
      "alphaMode": "OPAQUE",
      "doubleSided": false
    },
    {
      "name": "material_15",
      "pbrMetallicRoughness": {
        "baseColorFactor": [
          0.5,
          0.5,
          0.5,
          1
        ],
        "metallicFactor": 0,
        "roughnessFactor": 1
      },
      "emissiveFactor": [
        0,
        0,
        0
      ],
      "alphaMode": "OPAQUE",
      "doubleSided": false
    },
    {
      "name": "material_16",
      "pbrMetallicRoughness": {
        "baseColorFactor": [
          0.5,
          0.5,
          0.5,
          1
        ],
        "metallicFactor": 0,
        "roughnessFactor": 1
      },
      "emissiveFactor": [
        0,
        0,
        0
      ],
      "alphaMode": "OPAQUE",
      "doubleSided": false
    },
    {
      "name": "material_17",
      "pbrMetallicRoughness": {
        "baseColorFactor": [
          0.5,
          0.5,
          0.5,
          1
        ],
        "metallicFactor": 0,
        "roughnessFactor": 1
      },
      "emissiveFactor": [
        0,
        0,
        0
      ],
      "alphaMode": "OPAQUE",
      "doubleSided": false
    },
    {
      "name": "material_18",
      "pbrMetallicRoughness": {
        "baseColorFactor": [
          0.5,
          0.5,
          0.5,
          1
        ],
        "metallicFactor": 0,
        "roughnessFactor": 1
      },
      "emissiveFactor": [
        0,
        0,
        0
      ],
      "alphaMode": "OPAQUE",
      "doubleSided": false
    },
    {
      "name": "material_19",
      "pbrMetallicRoughness": {
        "baseColorFactor": [
          0.5,
          0.5,
          0.5,
          1
        ],
        "metallicFactor": 0,
        "roughnessFactor": 1
      },
      "emissiveFactor": [
        0,
        0,
        0
      ],
      "alphaMode": "OPAQUE",
      "doubleSided": false
    }
  ],
  "meshes": [
    {
      "name": "Node-Mesh",
      "primitives": [
        {
          "attributes": {
            "POSITION": 0
          },
          "indices": 1,
          "material": 0,
          "mode": 4
        }
      ]
    },
    {
      "name": "_1_1",
      "primitives": [
        {
          "attributes": {
            "POSITION": 2
          },
          "indices": 3,
          "material": 1,
          "mode": 4
        }
      ]
    },
    {
      "name": "_2_1",
      "primitives": [
        {
          "attributes": {
            "POSITION": 4
          },
          "indices": 5,
          "material": 2,
          "mode": 4
        }
      ]
    },
    {
      "name": "_3_1",
      "primitives": [
        {
          "attributes": {
            "POSITION": 6
          },
          "indices": 7,
          "material": 3,
          "mode": 4
        }
      ]
    },
    {
      "name": "_4_1",
      "primitives": [
        {
          "attributes": {
            "POSITION": 8
          },
          "indices": 9,
          "material": 4,
          "mode": 4
        }
      ]
    },
    {
      "name": "_5_1",
      "primitives": [
        {
          "attributes": {
            "POSITION": 10
          },
          "indices": 11,
          "material": 5,
          "mode": 4
        }
      ]
    },
    {
      "name": "_6_1",
      "primitives": [
        {
          "attributes": {
            "POSITION": 12
          },
          "indices": 13,
          "material": 6,
          "mode": 4
        }
      ]
    },
    {
      "name": "_7_1",
      "primitives": [
        {
          "attributes": {
            "POSITION": 14
          },
          "indices": 15,
          "material": 7,
          "mode": 4
        }
      ]
    },
    {
      "name": "_8_1",
      "primitives": [
        {
          "attributes": {
            "POSITION": 16
          },
          "indices": 17,
          "material": 8,
          "mode": 4
        }
      ]
    },
    {
      "name": "_9_1",
      "primitives": [
        {
          "attributes": {
            "POSITION": 18
          },
          "indices": 19,
          "material": 9,
          "mode": 4
        }
      ]
    },
    {
      "name": "_10_1",
      "primitives": [
        {
          "attributes": {
            "POSITION": 20
          },
          "indices": 21,
          "material": 10,
          "mode": 4
        }
      ]
    },
    {
      "name": "_11_1",
      "primitives": [
        {
          "attributes": {
            "POSITION": 22
          },
          "indices": 23,
          "material": 11,
          "mode": 4
        }
      ]
    },
    {
      "name": "_12_1",
      "primitives": [
        {
          "attributes": {
            "POSITION": 24
          },
          "indices": 25,
          "material": 12,
          "mode": 4
        }
      ]
    },
    {
      "name": "_13_1",
      "primitives": [
        {
          "attributes": {
            "POSITION": 26
          },
          "indices": 27,
          "material": 13,
          "mode": 4
        }
      ]
    },
    {
      "name": "_14_1",
      "primitives": [
        {
          "attributes": {
            "POSITION": 28
          },
          "indices": 29,
          "material": 14,
          "mode": 4
        }
      ]
    },
    {
      "name": "_15_1",
      "primitives": [
        {
          "attributes": {
            "POSITION": 30
          },
          "indices": 31,
          "material": 15,
          "mode": 4
        }
      ]
    },
    {
      "name": "_16_1",
      "primitives": [
        {
          "attributes": {
            "POSITION": 32
          },
          "indices": 33,
          "material": 16,
          "mode": 4
        }
      ]
    },
    {
      "name": "_17_1",
      "primitives": [
        {
          "attributes": {
            "POSITION": 34
          },
          "indices": 35,
          "material": 17,
          "mode": 4
        }
      ]
    },
    {
      "name": "_18_1",
      "primitives": [
        {
          "attributes": {
            "POSITION": 36
          },
          "indices": 37,
          "material": 18,
          "mode": 4
        }
      ]
    }
  ],
  "nodes": [
    {
      "name": "Node",
      "mesh": 0
    },
    {
      "name": "_1",
      "mesh": 1
    },
    {
      "name": "_2",
      "mesh": 2
    },
    {
      "name": "_3",
      "mesh": 3
    },
    {
      "name": "_4",
      "mesh": 4
    },
    {
      "name": "_5",
      "mesh": 5
    },
    {
      "name": "_6",
      "mesh": 6
    },
    {
      "name": "_7",
      "mesh": 7
    },
    {
      "name": "_8",
      "mesh": 8
    },
    {
      "name": "_9",
      "mesh": 9
    },
    {
      "name": "_10",
      "mesh": 10
    },
    {
      "name": "_11",
      "mesh": 11
    },
    {
      "name": "_12",
      "mesh": 12
    },
    {
      "name": "_13",
      "mesh": 13
    },
    {
      "name": "_14",
      "mesh": 14
    },
    {
      "name": "_15",
      "mesh": 15
    },
    {
      "name": "_16",
      "mesh": 16
    },
    {
      "name": "_17",
      "mesh": 17
    },
    {
      "name": "_18",
      "mesh": 18
    }
  ],
  "scene": 0,
  "scenes": [
    {
      "nodes": [
        0,
        1,
        2,
        3,
        4,
        5,
        6,
        7,
        8,
        9,
        10,
        11,
        12,
        13,
        14,
        15,
        16,
        17,
        18
      ]
    }
  ]
}
