{
  "accessors": [
    {
      "name": "Node-Mesh_0_positions",
      "componentType": 5126,
      "count": 5275,
      "min": [
        -1.6850600242614746,
        -1.2242000102996826,
        -2.4755098819732666
      ],
      "max": [
        0.17289599776268005,
        -0.017171699553728104,
        -1.8306000232696533
      ],
      "type": "VEC3",
      "bufferView": 0,
      "byteOffset": 0
    },
    {
      "name": "Node-Mesh_0_indices",
      "componentType": 5123,
      "count": 30366,
      "min": [
        0
      ],
      "max": [
        5274
      ],
      "type": "SCALAR",
      "bufferView": 1,
      "byteOffset": 0
    },
    {
      "name": "_1_1_0_positions",
      "componentType": 5126,
      "count": 7011,
      "min": [
        0.02277969941496849,
        -0.018085600808262825,
        0.08736609667539597
      ],
      "max": [
        1.2649999856948853,
        1.812980055809021,
        1.0647200345993042
      ],
      "type": "VEC3",
      "bufferView": 0,
      "byteOffset": 63300
    },
    {
      "name": "_1_1_0_indices",
      "componentType": 5123,
      "count": 41109,
      "min": [
        0
      ],
      "max": [
        7010
      ],
      "type": "SCALAR",
      "bufferView": 1,
      "byteOffset": 60732
    },
    {
      "name": "_2_1_0_positions",
      "componentType": 5126,
      "count": 5719,
      "min": [
        -1.4806900024414062,
        -1.1996899843215942,
        0.014750800095498562
      ],
      "max": [
        0.06279870122671127,
        -0.017487000674009323,
        1.1126999855041504
      ],
      "type": "VEC3",
      "bufferView": 0,
      "byteOffset": 147432
    },
    {
      "name": "_2_1_0_indices",
      "componentType": 5123,
      "count": 33501,
      "min": [
        0
      ],
      "max": [
        5718
      ],
      "type": "SCALAR",
      "bufferView": 1,
      "byteOffset": 142952
    },
    {
      "name": "_3_1_0_positions",
      "componentType": 5126,
      "count": 786,
      "min": [
        -2.6520299911499023,
        0.012356000021100044,
        -2.2428700923919678
      ],
      "max": [
        -1.992799997329712,
        0.7323560118675232,
        -1.9581400156021118
      ],
      "type": "VEC3",
      "bufferView": 0,
      "byteOffset": 216060
    },
    {
      "name": "_3_1_0_indices",
      "componentType": 5123,
      "count": 3858,
      "min": [
        0
      ],
      "max": [
        785
      ],
      "type": "SCALAR",
      "bufferView": 1,
      "byteOffset": 209956
    },
    {
      "name": "_4_1_0_positions",
      "componentType": 5126,
      "count": 10354,
      "min": [
        0.06279850006103516,
        -0.018336299806833267,
        -1.8306100368499756
      ],
      "max": [
        1.186329960823059,
        1.805899977684021,
        0.13910000026226044
      ],
      "type": "VEC3",
      "bufferView": 0,
      "byteOffset": 225492
    },
    {
      "name": "_4_1_0_indices",
      "componentType": 5123,
      "count": 60102,
      "min": [
        0
      ],
      "max": [
        10353
      ],
      "type": "SCALAR",
      "bufferView": 1,
      "byteOffset": 217672
    },
    {
      "name": "_5_1_0_positions",
      "componentType": 5126,
      "count": 7926,
      "min": [
        0.06279870122671127,
        -1.2038600444793701,
        -1.8306000232696533
      ],
      "max": [
        1.1398199796676636,
        -0.01750599965453148,
        0.1382330060005188
      ],
      "type": "VEC3",
      "bufferView": 0,
      "byteOffset": 349740
    },
    {
      "name": "_5_1_0_indices",
      "componentType": 5123,
      "count": 46320,
      "min": [
        0
      ],
      "max": [
        7925
      ],
      "type": "SCALAR",
      "bufferView": 1,
      "byteOffset": 337876
    },
    {
      "name": "_6_1_0_positions",
      "componentType": 5126,
      "count": 32,
      "min": [
        -2.658370018005371,
        0.19235600531101227,
        -1.9596799612045288
      ],
      "max": [
        -2.607340097427368,
        0.49235600233078003,
        -1.868749976158142
      ],
      "type": "VEC3",
      "bufferView": 0,
      "byteOffset": 444852
    },
    {
      "name": "_6_1_0_indices",
      "componentType": 5123,
      "count": 93,
      "min": [
        0
      ],
      "max": [
        31
      ],
      "type": "SCALAR",
      "bufferView": 1,
      "byteOffset": 430516
    },
    {
      "name": "_7_1_0_positions",
      "componentType": 5126,
      "count": 6398,
      "min": [
        -1.7194299697875977,
        -0.01902730017900467,
        -2.458940029144287
      ],
      "max": [
        0.17373700439929962,
        1.8044400215148926,
        -1.8306100368499756
      ],
      "type": "VEC3",
      "bufferView": 0,
      "byteOffset": 445236
    },
    {
      "name": "_7_1_0_indices",
      "componentType": 5123,
      "count": 37386,
      "min": [
        0
      ],
      "max": [
        6397
      ],
      "type": "SCALAR",
      "bufferView": 1,
      "byteOffset": 430704
    },
    {
      "name": "_8_1_0_positions",
      "componentType": 5126,
      "count": 1041,
      "min": [
        0.1511159986257553,
        -1.2038600444793701,
        -2.2704501152038574
      ],
      "max": [
        0.37462300062179565,
        -0.017496200278401375,
        -1.8190100193023682
      ],
      "type": "VEC3",
      "bufferView": 0,
      "byteOffset": 522012
    },
    {
      "name": "_8_1_0_indices",
      "componentType": 5123,
      "count": 5769,
      "min": [
        0
      ],
      "max": [
        1040
      ],
      "type": "SCALAR",
      "bufferView": 1,
      "byteOffset": 505476
    },
    {
      "name": "_9_1_0_positions",
      "componentType": 5126,
      "count": 3920,
      "min": [
        0.02175769954919815,
        -1.201050043106079,
        0.08736439794301987
      ],
      "max": [
        1.184249997138977,
        -0.017618799582123756,
        1.0439800024032593
      ],
      "type": "VEC3",
      "bufferView": 0,
      "byteOffset": 534504
    },
    {
      "name": "_9_1_0_indices",
      "componentType": 5123,
      "count": 22788,
      "min": [
        0
      ],
      "max": [
        3919
      ],
      "type": "SCALAR",
      "bufferView": 1,
      "byteOffset": 517016
    },
    {
      "name": "_10_1_0_positions",
      "componentType": 5126,
      "count": 11943,
      "min": [
        -1.7086900472640991,
        -1.2038600444793701,
        -1.9156899452209473
      ],
      "max": [
        0.1511159986257553,
        -0.01748039945960045,
        0.08736439794301987
      ],
      "type": "VEC3",
      "bufferView": 0,
      "byteOffset": 581544
    },
    {
      "name": "_10_1_0_indices",
      "componentType": 5123,
      "count": 68802,
      "min": [
        0
      ],
      "max": [
        11942
      ],
      "type": "SCALAR",
      "bufferView": 1,
      "byteOffset": 562592
    },
    {
      "name": "_11_1_0_positions",
      "componentType": 5126,
      "count": 3306,
      "min": [
        0.1511169970035553,
        -0.017646800726652145,
        -2.4382400512695312
      ],
      "max": [
        0.9671210050582886,
        1.8034199476242065,
        -1.793030023574829
      ],
      "type": "VEC3",
      "bufferView": 0,
      "byteOffset": 724860
    },
    {
      "name": "_11_1_0_indices",
      "componentType": 5123,
      "count": 18534,
      "min": [
        0
      ],
      "max": [
        3305
      ],
      "type": "SCALAR",
      "bufferView": 1,
      "byteOffset": 700196
    },
    {
      "name": "_12_1_0_positions",
      "componentType": 5126,
      "count": 10310,
      "min": [
        -1.7033300399780273,
        -0.0180612001568079,
        -1.9143600463867188
      ],
      "max": [
        0.1511169970035553,
        1.8425099849700928,
        0.08736609667539597
      ],
      "type": "VEC3",
      "bufferView": 0,
      "byteOffset": 764532
    },
    {
      "name": "_12_1_0_indices",
      "componentType": 5123,
      "count": 60309,
      "min": [
        0
      ],
      "max": [
        10309
      ],
      "type": "SCALAR",
      "bufferView": 1,
      "byteOffset": 737264
    },
    {
      "name": "_13_1_0_positions",
      "componentType": 5126,
      "count": 9981,
      "min": [
        -1.4953199625015259,
        -0.01817459985613823,
        0.014759199693799019
      ],
      "max": [
        0.06279850006103516,
        1.815269947052002,
        1.1049599647521973
      ],
      "type": "VEC3",
      "bufferView": 0,
      "byteOffset": 888252
    },
    {
      "name": "_13_1_0_indices",
      "componentType": 5123,
      "count": 58950,
      "min": [
        0
      ],
      "max": [
        9980
      ],
      "type": "SCALAR",
      "bufferView": 1,
      "byteOffset": 857884
    }
  ],
  "asset": {
    "generator": "obj2gltf",
    "version": "2.0"
  },
  "buffers": [
    {
      "name": "814cee97-cf3b-4a3a-b8cf-254fb8ad311f",
      "byteLength": 1983808,
      "uri": "data:application/octet-stream;base64,"
    }
  ],
  "bufferViews": [
    {
      "name": "bufferView_0",
      "buffer": 0,
      "byteLength": 1008024,
      "byteOffset": 0,
      "byteStride": 12,
      "target": 34962
    },
    {
      "name": "bufferView_1",
      "buffer": 0,
      "byteLength": 975784,
      "byteOffset": 1008024,
      "target": 34963
    }
  ],
  "materials": [
    {
      "name": "material_1",
      "pbrMetallicRoughness": {
        "baseColorFactor": [
          0.5,
          0.5,
          0.5,
          1
        ],
        "metallicFactor": 0,
        "roughnessFactor": 1
      },
      "emissiveFactor": [
        0,
        0,
        0
      ],
      "alphaMode": "OPAQUE",
      "doubleSided": false
    },
    {
      "name": "material_2",
      "pbrMetallicRoughness": {
        "baseColorFactor": [
          0.5,
          0.5,
          0.5,
          1
        ],
        "metallicFactor": 0,
        "roughnessFactor": 1
      },
      "emissiveFactor": [
        0,
        0,
        0
      ],
      "alphaMode": "OPAQUE",
      "doubleSided": false
    },
    {
      "name": "material_3",
      "pbrMetallicRoughness": {
        "baseColorFactor": [
          0.5,
          0.5,
          0.5,
          1
        ],
        "metallicFactor": 0,
        "roughnessFactor": 1
      },
      "emissiveFactor": [
        0,
        0,
        0
      ],
      "alphaMode": "OPAQUE",
      "doubleSided": false
    },
    {
      "name": "material_4",
      "pbrMetallicRoughness": {
        "baseColorFactor": [
          0.5,
          0.5,
          0.5,
          1
        ],
        "metallicFactor": 0,
        "roughnessFactor": 1
      },
      "emissiveFactor": [
        0,
        0,
        0
      ],
      "alphaMode": "OPAQUE",
      "doubleSided": false
    },
    {
      "name": "material_5",
      "pbrMetallicRoughness": {
        "baseColorFactor": [
          0.5,
          0.5,
          0.5,
          1
        ],
        "metallicFactor": 0,
        "roughnessFactor": 1
      },
      "emissiveFactor": [
        0,
        0,
        0
      ],
      "alphaMode": "OPAQUE",
      "doubleSided": false
    },
    {
      "name": "material_6",
      "pbrMetallicRoughness": {
        "baseColorFactor": [
          0.5,
          0.5,
          0.5,
          1
        ],
        "metallicFactor": 0,
        "roughnessFactor": 1
      },
      "emissiveFactor": [
        0,
        0,
        0
      ],
      "alphaMode": "OPAQUE",
      "doubleSided": false
    },
    {
      "name": "material_7",
      "pbrMetallicRoughness": {
        "baseColorFactor": [
          0.5,
          0.5,
          0.5,
          1
        ],
        "metallicFactor": 0,
        "roughnessFactor": 1
      },
      "emissiveFactor": [
        0,
        0,
        0
      ],
      "alphaMode": "OPAQUE",
      "doubleSided": false
    },
    {
      "name": "material_8",
      "pbrMetallicRoughness": {
        "baseColorFactor": [
          0.5,
          0.5,
          0.5,
          1
        ],
        "metallicFactor": 0,
        "roughnessFactor": 1
      },
      "emissiveFactor": [
        0,
        0,
        0
      ],
      "alphaMode": "OPAQUE",
      "doubleSided": false
    },
    {
      "name": "material_9",
      "pbrMetallicRoughness": {
        "baseColorFactor": [
          0.5,
          0.5,
          0.5,
          1
        ],
        "metallicFactor": 0,
        "roughnessFactor": 1
      },
      "emissiveFactor": [
        0,
        0,
        0
      ],
      "alphaMode": "OPAQUE",
      "doubleSided": false
    },
    {
      "name": "material_10",
      "pbrMetallicRoughness": {
        "baseColorFactor": [
          0.5,
          0.5,
          0.5,
          1
        ],
        "metallicFactor": 0,
        "roughnessFactor": 1
      },
      "emissiveFactor": [
        0,
        0,
        0
      ],
      "alphaMode": "OPAQUE",
      "doubleSided": false
    },
    {
      "name": "material_11",
      "pbrMetallicRoughness": {
        "baseColorFactor": [
          0.5,
          0.5,
          0.5,
          1
        ],
        "metallicFactor": 0,
        "roughnessFactor": 1
      },
      "emissiveFactor": [
        0,
        0,
        0
      ],
      "alphaMode": "OPAQUE",
      "doubleSided": false
    },
    {
      "name": "material_12",
      "pbrMetallicRoughness": {
        "baseColorFactor": [
          0.5,
          0.5,
          0.5,
          1
        ],
        "metallicFactor": 0,
        "roughnessFactor": 1
      },
      "emissiveFactor": [
        0,
        0,
        0
      ],
      "alphaMode": "OPAQUE",
      "doubleSided": false
    },
    {
      "name": "material_13",
      "pbrMetallicRoughness": {
        "baseColorFactor": [
          0.5,
          0.5,
          0.5,
          1
        ],
        "metallicFactor": 0,
        "roughnessFactor": 1
      },
      "emissiveFactor": [
        0,
        0,
        0
      ],
      "alphaMode": "OPAQUE",
      "doubleSided": false
    },
    {
      "name": "material_14",
      "pbrMetallicRoughness": {
        "baseColorFactor": [
          0.5,
          0.5,
          0.5,
          1
        ],
        "metallicFactor": 0,
        "roughnessFactor": 1
      },
      "emissiveFactor": [
        0,
        0,
        0
      ],
      "alphaMode": "OPAQUE",
      "doubleSided": false
    }
  ],
  "meshes": [
    {
      "name": "Node-Mesh",
      "primitives": [
        {
          "attributes": {
            "POSITION": 0
          },
          "indices": 1,
          "material": 0,
          "mode": 4
        }
      ]
    },
    {
      "name": "_1_1",
      "primitives": [
        {
          "attributes": {
            "POSITION": 2
          },
          "indices": 3,
          "material": 1,
          "mode": 4
        }
      ]
    },
    {
      "name": "_2_1",
      "primitives": [
        {
          "attributes": {
            "POSITION": 4
          },
          "indices": 5,
          "material": 2,
          "mode": 4
        }
      ]
    },
    {
      "name": "_3_1",
      "primitives": [
        {
          "attributes": {
            "POSITION": 6
          },
          "indices": 7,
          "material": 3,
          "mode": 4
        }
      ]
    },
    {
      "name": "_4_1",
      "primitives": [
        {
          "attributes": {
            "POSITION": 8
          },
          "indices": 9,
          "material": 4,
          "mode": 4
        }
      ]
    },
    {
      "name": "_5_1",
      "primitives": [
        {
          "attributes": {
            "POSITION": 10
          },
          "indices": 11,
          "material": 5,
          "mode": 4
        }
      ]
    },
    {
      "name": "_6_1",
      "primitives": [
        {
          "attributes": {
            "POSITION": 12
          },
          "indices": 13,
          "material": 6,
          "mode": 4
        }
      ]
    },
    {
      "name": "_7_1",
      "primitives": [
        {
          "attributes": {
            "POSITION": 14
          },
          "indices": 15,
          "material": 7,
          "mode": 4
        }
      ]
    },
    {
      "name": "_8_1",
      "primitives": [
        {
          "attributes": {
            "POSITION": 16
          },
          "indices": 17,
          "material": 8,
          "mode": 4
        }
      ]
    },
    {
      "name": "_9_1",
      "primitives": [
        {
          "attributes": {
            "POSITION": 18
          },
          "indices": 19,
          "material": 9,
          "mode": 4
        }
      ]
    },
    {
      "name": "_10_1",
      "primitives": [
        {
          "attributes": {
            "POSITION": 20
          },
          "indices": 21,
          "material": 10,
          "mode": 4
        }
      ]
    },
    {
      "name": "_11_1",
      "primitives": [
        {
          "attributes": {
            "POSITION": 22
          },
          "indices": 23,
          "material": 11,
          "mode": 4
        }
      ]
    },
    {
      "name": "_12_1",
      "primitives": [
        {
          "attributes": {
            "POSITION": 24
          },
          "indices": 25,
          "material": 12,
          "mode": 4
        }
      ]
    },
    {
      "name": "_13_1",
      "primitives": [
        {
          "attributes": {
            "POSITION": 26
          },
          "indices": 27,
          "material": 13,
          "mode": 4
        }
      ]
    }
  ],
  "nodes": [
    {
      "name": "Node",
      "mesh": 0
    },
    {
      "name": "_1",
      "mesh": 1
    },
    {
      "name": "_2",
      "mesh": 2
    },
    {
      "name": "_3",
      "mesh": 3
    },
    {
      "name": "_4",
      "mesh": 4
    },
    {
      "name": "_5",
      "mesh": 5
    },
    {
      "name": "_6",
      "mesh": 6
    },
    {
      "name": "_7",
      "mesh": 7
    },
    {
      "name": "_8",
      "mesh": 8
    },
    {
      "name": "_9",
      "mesh": 9
    },
    {
      "name": "_10",
      "mesh": 10
    },
    {
      "name": "_11",
      "mesh": 11
    },
    {
      "name": "_12",
      "mesh": 12
    },
    {
      "name": "_13",
      "mesh": 13
    }
  ],
  "scene": 0,
  "scenes": [
    {
      "nodes": [
        0,
        1,
        2,
        3,
        4,
        5,
        6,
        7,
        8,
        9,
        10,
        11,
        12,
        13
      ]
    }
  ]
}
